<svg width="101" height="99" xmlns="http://www.w3.org/2000/svg"><g fill-rule="evenodd"><path fill="#fff" stroke="#f60" stroke-width=".291" d="M3.067 56.342c-2.73 4.379-1.94 7.437-.973 10.43l44.283 30.405 41.1-17.324-3.181-2.121-.708-3.536c1.132-1.092 2.198-2.172 2.917-3.182.198-1.203 1.108-2.763-.442-3.093L39.13 44.94 7.044 55.104 5.542 56.52l-2.475-.177z"/><path d="M39.372 43.957L5.915 54.254s-.422 1.077-.902 1.287c-.7.306-2.272-.31-2.272-.31-1.395.645-2.423 3.455-2.582 6.046-.159 2.592.37 5.145 1.223 6.1L45.63 98.191c.662.375.999.26 1.336.147l41.467-17.113c.82-.371.861-1.25.166-2.198l-4.067-2.822c.328 1.477.57 2.87.399 3.682-8.1 3.244-26.942 10.879-37.668 15.457-.835-1.163-.928-2.945-1.092-4.518-.183-1.75-.01-4.096.68-5.135.688-1.038 1.522-.011 2.066-.265.438-.205 1.113-.672 1.478-1.217 8.333-2.79 26.693-10.205 37.89-14.563.804-.826.363-1.341-.14-1.841L39.372 43.957zm-.164 2.082l45.61 22.76L49.17 82.412s-.488.817-.926.973c-.379.135-.958-.39-1.373-.533-.51-.177-1.36.146-1.725.714-.868 1.354-1.393 3.009-1.67 4.586-.333 1.9-.068 3.744.436 5.418L4.079 66.162c-.91-.618-1.803-2.46-1.684-4.398.121-1.966.603-3.993 1.893-4.616 0 0 1.456.515 1.908.38.51-.154 1.125-1.245 1.125-1.245zM7.107 58.612c-.773.323 12.161 7.885 18.954 11.949 6.542 3.913 20.551 12.169 20.963 11.515.412-.653-13.664-8.43-20.18-12.342C20.25 65.776 7.88 58.288 7.108 58.612z"/><path d="M87.325 70.018l-36.898 14.16c-.283.235-1.086 1.125-1.604 1.234-.609.128-1.252-.678-2.012.238-.637 1.82-.713 3.07-.503 4.768.275 2.226.408 2.861 1.142 4.834l37.422-15.18c.516-1.619-.244-3.21-.488-4.65-.081-.536-.069-1.01.181-1.608.25-.597 1.121-.984 2.041-1.996.546-.6.667-1.2.72-1.8zm-2.135 1.908c.13.709-1.154.608-1.779 1.394a2.338 2.338 0 0 0-.314.551c-.477.162-2.308.783-3.282 1.143-4.054 1.499-12.143 4.567-12.043 4.81.101.244 8.045-3.107 12.088-4.426 1.037-.338 2.633-.834 3.07-.97-.123.535-.141 1.045-.109 1.26.199 1.31.39 2.225.37 3.144L48.248 93.355c-.51-1.232-.864-2.399-.938-3.656.394-.148 9.344-3.506 14.045-5.496 4.13-1.748 12.74-4.79 12.573-5.037-.167-.248-8.714 2.766-12.832 4.639-4.42 2.009-12.726 5.063-13.803 5.361.006-.79.124-1.62.4-2.533.26.033 1.245.083 1.508.04.588-.092 1.003-.605 1.592-1.187 1.312-.5 34.396-13.56 34.396-13.56zm-17.363 11.66c-4.368 1.76-15.815 6.546-15.836 6.768-.02.221 11.68-4.566 16.006-6.327 3.977-1.619 13.974-5.337 13.23-5.374-.746-.037-9.7 3.442-13.4 4.933z"/></g><g fill-rule="evenodd"><path fill="#fff" stroke="red" stroke-width=".291" d="M4.658 39.018l3.27-.884 34.825-.265 38.803 23.688-1.591.884-1.591 4.684c.456 1.267.419 3.523 1.502 3.536L31.44 82.593 2.448 48.475c.429-3.255-.758-7.048 2.21-9.457z"/><path d="M43.04 36.938l-35.639.345c-.231.33-.784.816-1.054.877-.284.064-1.054-.56-1.526-.379-2.14.825-2.359 3.336-2.726 4.729-.661 2.503-.072 6.31.681 7.441 1.125 1.313 26.792 31.698 27.772 32.664 1.131 1.116 2.168 1.268 4.054.776 8.426-2.2 32.945-7.542 48.434-11.758.914-.478.538-1.268-.13-1.903l-3.716-2.255a9.988 9.988 0 0 0 .461 2.894c-14.394 3.32-31.537 7.055-46.136 10.34-1.27-.447-2.557-2.44-2.704-3.479-.406-2.874.136-4.237.688-5.037.55-.796.973-1.278 1.477-1.591.556.057 1.379.294 1.869.11.519-.193.882-.572 1.263-.927l46.328-7.23c.72-.544.257-1.306-.101-1.631L43.04 36.937zm-.418 2.082L78.86 61.164 35 67.908c-.483.247-.652.808-.867.889-.215.08-.906-.083-1.489-.139-1.21.356-2.776 2.55-3.158 4.108-.872 3.562-.201 5.398 1.383 7.933L4.508 49.03c-.636-.969-.997-2.594-.573-5.236.21-1.31.653-2.579 1.328-3.658.426.032.806.335 1.517.105.916-.295.9-.993 1.12-1.076zM7.415 41.374c-.491.448 8.237 8.81 12.541 13.29 4.356 4.534 12.492 13.936 13.139 13.438.646-.5-7.995-9.648-12.332-14.16C16.57 49.58 7.907 40.925 7.415 41.373z"/><path d="M81.175 62.752c-15.169 2.179-37.08 5.487-45.057 6.988-.32.44-.858.82-1.539.979-.258.06-.887-.06-1.598-.123-1.679 1.093-2.395 3.342-2.17 5.42.29 2.659 1.375 3.683 2.806 4.707 15.36-3.408 30.72-6.211 46.08-10.35-1.111-3.452-.068-5.495 1.478-7.621zm-3.258 1.904c-.58 1.127-.676 1.874-.512 3.139-.325.061-3.97.744-5.92 1.125-2.37.463-6.98 1.133-6.988 1.476-.007.344 4.797-.442 7.15-.93 1.738-.359 4.976-.748 5.805-1.372.044.294.085.575.15.937L34.085 79.273c-.56-.34-1.043-1.005-1.39-1.71.746-.146 7.739-1.504 11.429-2.079 4.249-.662 12.71-2.487 12.594-2.79-.117-.304-8.076 1.74-12.662 2.218-3.816.398-10.95 1.884-11.63 2.025-.132-.374-.23-.737-.251-1.046-.108-1.605-.149-2.69 1.258-4.108.303.247.974.409 1.511.293.781-.168 1.14-.369 1.623-.904l41.35-6.516zm-5.543 2.514c-.766-.139-11.032 1.805-16.334 2.644-7.29 1.155-21.942 3.073-21.773 3.499.168.425 14.788-1.86 22.138-3.075 5.581-.923 16.735-2.93 15.969-3.068z"/></g><g fill-rule="evenodd"><path fill="#fff" stroke="#f60" stroke-width=".291" d="M41.604 23.815L3.597 29.207c-1.285 3.316-3.32 6.22-.088 12.02l39.774 30.23L88.185 58.11l-3.36-1.857c.082-3.483.962-6.53 2.83-10.253L41.603 23.815z"/><path d="M41.638 23.21L3.923 28.22c-1.937.554-3.043 4.788-2.96 7.347.066 2.003 1.17 5.173 2.423 6.559l40.16 30.543 46.558-13.525c.586-.763.3-1.176.079-1.616l-4.383-2.66s.103 1.912-.022 3.162c-11.97 3.142-30.897 8.33-42.09 11.483-.689-.693-1.628-3.366-1.681-5.08-.09-2.926.354-4.779 1.49-5.805l46.787-10.535c.543-.352.607-1.219-.185-1.985L41.638 23.211zm-.127 1.614l44.457 21.727-44.49 9.898c-1.569 1.915-1.962 4.014-1.926 6.115.03 1.757.507 4.345 1.347 5.717L4.667 40.338c-.899-.81-1.552-3.377-1.555-4.524-.004-1.767.6-3.508 1.633-5.726zM6.73 31.367c-.926.404 14.932 11.705 14.932 11.705s18.416 13.411 18.64 12.788c.223-.624-17.334-14.025-17.334-14.025S7.658 30.962 6.732 31.367z"/><path d="M88.15 48.557l-2.018.453-42.121 9.355c-.773.834-2.068 2.488-1.664 6.086.206 1.843.674 3.5 1.802 4.973l41.635-11.375c.171-1.07.017-3.213.15-4.76.134-1.547.639-2.106 1.15-2.959l1.065-1.773zm-3.284 2.226c-.215.769-.536 1.485-.685 2.285-.506-.017-1.254-.032-1.692.059-2.575.536-7.71 1.963-7.56 2.26.15.296 4.803-1.395 7.748-1.578.426-.027.983.003 1.408.03-.04.482-.061.875-.078 1.26-4.575 1.153-9.664 2.39-14.225 3.512-5.872 1.445-14.612 3.343-14.5 3.83.113.488 8.844-1.89 14.674-3.326 4.558-1.122 9.459-2.186 14.033-3.33a4.2 4.2 0 0 0 .074.817L45.226 67.158c-1.223-.49-1.23-1.8-1.364-2.804-.2-1.52-.203-3.27.803-4.083zm-22.281 6.793c-6.407 1.582-18.136 4.686-18.031 4.996.104.311 11.793-2.848 18.123-4.566 3.347-.909 10.21-2.592 9.599-2.755-.612-.162-6.558 1.552-9.691 2.325z"/></g><g fill-rule="evenodd"><path fill="#fff" stroke="#f60" stroke-width=".291" d="M47.526 12.678l-36.681 10.43s-.442 1.414-.972 1.326c-.53-.089-2.74-.089-2.74-.089-1.967 2.508-2.01 4.888-.442 7.16l52.325 25.632 39.068-14.142-1.768-1.502 1.857-2.74.088-4.331-50.735-21.744z"/><path d="M47.556 12.033c-12.332 3.432-26.273 7.121-37.496 10.08-.22.14-.3.679-.778 1.168-.208.213-1.082-.236-1.392-.2-.486.054-1.046.462-1.438.808-.534.47-.694.932-.932 1.588-.245.676-.238 1.43-.293 2.273-.109 1.688.204 3.665.91 4.594 17.319 8.566 35.86 18.102 52.436 26.17.349.27 1.128.311 1.57.236.443-.075.821-.223.96-.52a2.09 2.09 0 0 1 .638-.736c.293-.191.57.295 1.229.283l36.213-13.855c.403-.155.669-.74.002-1.277l-2.309-1.485-1.156 1.733c-10.755 3.695-22.901 8.152-34.274 12.318-.868-.186-1.873-2.015-1.926-2.877-.058-.962.428-2.067.727-2.543 12.623-4.701 26.366-9.373 40.027-14.217.642-.361.456-.93-.1-1.592L47.557 12.033zm-.06 1.598l49.11 21.418-36.63 12.627c-.84.317-1.36.995-1.801 1.64-.575.84-.97 2.092-.877 3.592.085 1.387.43 2.322.898 3.072L7.686 30.96c-.666-.98-.639-1.873-.574-3.049.051-.924.304-1.735.846-2.42.064-.08.785-.63 1.535-.205.31.176.612.182 1.14-.197.652-.467.425-.895.874-1.256l35.988-10.201zM11.184 25.029c-.127-.023-.202-.018-.223.016-.343.543 14.42 7.563 21.736 11.133 8.086 3.944 24.198 11.813 24.485 11.36.287-.455-16.036-8.373-24.172-12.321-6.827-3.313-19.933-9.833-21.826-10.188z"/><path d="M99.015 36.043c-13.362 4.37-31.858 11.296-38.65 13.633-.77.844-.713 1.92-.458 2.91.255.99 1.07 2.369 1.662 2.607l34.46-12.35c.262-.362 1.365-1.384 2.103-2.519.369-.567.654-1.5.799-2.119.144-.618.382-1.715.084-2.162zm-1.286 1.271c.256.811-.307 1.446-.689 2.07-.608.995-1.417 1.99-1.951 2.702L62.022 53.943c-.532-.279-.96-.886-1.146-1.607-.19-.74-.127-1.533.086-1.871zm-17.527 7.051c-5.745 2.097-17.307 5.83-17.14 6.451.166.62 11.653-3.9 17.45-6.023 5.455-1.998 15.827-5.795 15.621-6.05-.206-.254-10.766 3.737-15.93 5.622zm14.895-3.402c-.126-.155-4.291 1.297-6.34 2.078-1.929.735-26.881 9.664-26.766 9.97.116.308 25.143-8.8 27.094-9.534 2.032-.765 6.137-2.36 6.012-2.514z"/></g><g fill-rule="evenodd"><path fill="#fff" stroke="#f60" stroke-width=".291" d="M50.531.569L9.52 8.7c-2.999 2.898-4.067 6.532-2.121 11.313l41.63 27.754L97.378 35.57l-4.243-3.006-.353-4.596 3.889-5.303L50.53.569z"/><path d="M50.706 0L8.53 8.205s-2.776 3.145-2.732 6.383c.042 3.148.413 5.018 1.314 5.92 1.314.915 41.91 28.377 41.91 28.377l48.922-12.873c.505-.62.133-1.094-.242-1.567l-3.744-1.681.326 1.71C79.87 38.3 64.65 42.25 50.014 45.882c-.198-.848-.891-3.22-.956-4.049-.25-3.166 1.856-6.06 2.132-6.428L97.435 24.45c.506-.68.361-1.582-.182-2.113L50.706 0zm-.12 1.47L94.59 22.862 50.259 33.95s-3.345 3.345-3.053 7.819c.107 1.64.973 3.94 1.133 4.564L8.79 19.957c-.808-.838-1.066-2.537-1.105-5.477-.026-1.902 1.471-4.461 1.697-4.66zm-40.462 8.604c-.232.471 12.56 8.063 18.969 11.88 6.783 4.039 19.998 12.2 20.605 11.689.607-.512-13.192-8.44-19.916-12.444-6.467-3.851-19.426-11.596-19.658-11.125z"/><path d="M96.522 24.348c-.138.016-.289.084-.367.103L51.544 35.31c-1.035 1.718-2.066 3.419-2.262 5.263-.184 1.733.681 4.012.992 5.545L94.29 34.555c-.335-1.71-.559-3.273-.578-4.659-.023-1.686.75-2.93 1.51-3.802.38-.436.67-.536.968-.75.25-.18.54-.324.641-.496.047-.081.03-.144-.002-.297-.037-.185-.167-.22-.307-.203zm-3.88 2.187c-.677.827-.854 1.438-.895 2.08-2.95.43-12.367 2.475-17.479 3.645-5.944 1.36-17.812 4.262-17.722 4.568.09.306 12.009-2.482 17.978-3.848 5.102-1.167 14.286-3.207 17.213-4.066-.001.384.018.786.02 1.272.008 2.119.311 2.856.394 3.236L51.095 43.689a7.167 7.167 0 0 1-.291-.978c.873.007 3.545-.5 4.97-.85 1.85-.454 8.006-2.194 7.979-2.445-.027-.251-6.318 1.404-8.223 1.871-1.399.343-3.967.847-4.77 1.182-.094-.57-.081-1.097-.029-1.924.127-1.995 1.039-3.198 1.19-3.426zm-24.48 9.695c-5.183 1.139-15.463 3.218-15.438 3.665.024.446 10.469-1.788 15.65-2.926 5.754-1.264 17.264-3.98 16.446-4.123-.818-.142-11.265 2.2-16.659 3.384z"/></g></svg>